<svg width="70" height="70" viewBox="0 0 70 70" fill="none" xmlns="http://www.w3.org/2000/svg">
<path d="M64.1666 32.375V20.125C64.1666 9.91671 60.0833 5.83337 49.875 5.83337H37.625C27.4166 5.83337 23.3333 9.91671 23.3333 20.125V23.3334H32.375C42.5833 23.3334 46.6666 27.4167 46.6666 37.625V46.6667H49.875C60.0833 46.6667 64.1666 42.5834 64.1666 32.375Z" stroke="#3A499C" style="stroke:#3A499C;stroke:color(display-p3 0.2275 0.2863 0.6118);stroke-opacity:1;" stroke-width="4" stroke-linecap="round" stroke-linejoin="round"/>
<path d="M46.6666 49.875V37.625C46.6666 27.4167 42.5833 23.3334 32.375 23.3334H20.125C9.91665 23.3334 5.83331 27.4167 5.83331 37.625V49.875C5.83331 60.0834 9.91665 64.1667 20.125 64.1667H32.375C42.5833 64.1667 46.6666 60.0834 46.6666 49.875Z" stroke="#3A499C" style="stroke:#3A499C;stroke:color(display-p3 0.2275 0.2863 0.6118);stroke-opacity:1;" stroke-width="4" stroke-linecap="round" stroke-linejoin="round"/>
<path d="M17.7336 43.75L23.4211 49.4375L34.7669 38.0625" stroke="#3A499C" style="stroke:#3A499C;stroke:color(display-p3 0.2275 0.2863 0.6118);stroke-opacity:1;" stroke-width="4" stroke-linecap="round" stroke-linejoin="round"/>
</svg>
