<svg width="70" height="70" viewBox="0 0 70 70" fill="none" xmlns="http://www.w3.org/2000/svg">
<path d="M63.175 30.45L60.3166 42.6417C57.8666 53.1708 53.025 57.4291 43.925 56.5541C42.4666 56.4375 40.8916 56.175 39.2 55.7667L34.3 54.6C22.1375 51.7125 18.375 45.7042 21.2333 33.5125L24.0916 21.2917C24.675 18.8125 25.375 16.6541 26.25 14.875C29.6625 7.81665 35.4666 5.92082 45.2083 8.22498L50.0791 9.36248C62.3 12.2208 66.0333 18.2583 63.175 30.45Z" stroke="#3A499C" style="stroke:#3A499C;stroke:color(display-p3 0.2275 0.2863 0.6118);stroke-opacity:1;" stroke-width="4" stroke-linecap="round" stroke-linejoin="round"/>
<path d="M43.925 56.5542C42.1167 57.7792 39.8417 58.8 37.0709 59.7042L32.4625 61.2208C20.8834 64.9542 14.7875 61.8333 11.025 50.2542L7.29168 38.7333C3.55835 27.1542 6.65002 21.0292 18.2292 17.2958L22.8375 15.7792C24.0333 15.4 25.1709 15.0792 26.25 14.875C25.375 16.6542 24.675 18.8125 24.0917 21.2917L21.2334 33.5125C18.375 45.7042 22.1375 51.7125 34.3 54.6L39.2 55.7667C40.8917 56.175 42.4667 56.4375 43.925 56.5542Z" stroke="#3A499C" style="stroke:#3A499C;stroke:color(display-p3 0.2275 0.2863 0.6118);stroke-opacity:1;" stroke-width="4" stroke-linecap="round" stroke-linejoin="round"/>
</svg>
