<svg width="70" height="70" viewBox="0 0 70 70" fill="none" xmlns="http://www.w3.org/2000/svg">
<path d="M49.5833 61.25H20.4167C8.75001 61.25 5.83334 58.3333 5.83334 46.6667V23.3333C5.83334 11.6667 8.75001 8.75 20.4167 8.75H49.5833C61.25 8.75 64.1667 11.6667 64.1667 23.3333V46.6667C64.1667 58.3333 61.25 61.25 49.5833 61.25Z" stroke="#3A499C" style="stroke:#3A499C;stroke:color(display-p3 0.2275 0.2863 0.6118);stroke-opacity:1;" stroke-width="4" stroke-linecap="round" stroke-linejoin="round"/>
<path d="M40.8333 23.3334H55.4166" stroke="#3A499C" style="stroke:#3A499C;stroke:color(display-p3 0.2275 0.2863 0.6118);stroke-opacity:1;" stroke-width="4" stroke-linecap="round" stroke-linejoin="round"/>
<path d="M43.75 35H55.4167" stroke="#3A499C" style="stroke:#3A499C;stroke:color(display-p3 0.2275 0.2863 0.6118);stroke-opacity:1;" stroke-width="4" stroke-linecap="round" stroke-linejoin="round"/>
<path d="M49.5833 46.6666H55.4166" stroke="#3A499C" style="stroke:#3A499C;stroke:color(display-p3 0.2275 0.2863 0.6118);stroke-opacity:1;" stroke-width="4" stroke-linecap="round" stroke-linejoin="round"/>
<path d="M24.7917 32.9292C27.7073 32.9292 30.0708 30.5656 30.0708 27.65C30.0708 24.7344 27.7073 22.3708 24.7917 22.3708C21.8761 22.3708 19.5125 24.7344 19.5125 27.65C19.5125 30.5656 21.8761 32.9292 24.7917 32.9292Z" stroke="#3A499C" style="stroke:#3A499C;stroke:color(display-p3 0.2275 0.2863 0.6118);stroke-opacity:1;" stroke-width="4" stroke-linecap="round" stroke-linejoin="round"/>
<path d="M35 47.6291C34.5917 43.4 31.2375 40.075 27.0083 39.6958C25.55 39.55 24.0625 39.55 22.575 39.6958C18.3458 40.1041 14.9917 43.4 14.5833 47.6291" stroke="#3A499C" style="stroke:#3A499C;stroke:color(display-p3 0.2275 0.2863 0.6118);stroke-opacity:1;" stroke-width="4" stroke-linecap="round" stroke-linejoin="round"/>
</svg>
