<svg width="70" height="70" viewBox="0 0 70 70" fill="none" xmlns="http://www.w3.org/2000/svg">
<path d="M35 35C43.0542 35 49.5834 28.4708 49.5834 20.4166C49.5834 12.3625 43.0542 5.83331 35 5.83331C26.9459 5.83331 20.4167 12.3625 20.4167 20.4166C20.4167 28.4708 26.9459 35 35 35Z" stroke="#3A499C" style="stroke:#3A499C;stroke:color(display-p3 0.2275 0.2863 0.6118);stroke-opacity:1;" stroke-width="4" stroke-linecap="round" stroke-linejoin="round"/>
<path d="M9.94586 64.1667C9.94586 52.8792 21.175 43.75 35 43.75C37.8 43.75 40.5125 44.1292 43.05 44.8292" stroke="#3A499C" style="stroke:#3A499C;stroke:color(display-p3 0.2275 0.2863 0.6118);stroke-opacity:1;" stroke-width="4" stroke-linecap="round" stroke-linejoin="round"/>
<path d="M64.1666 52.5C64.1666 53.4333 64.05 54.3375 63.8167 55.2125C63.5542 56.3791 63.0875 57.5166 62.475 58.5083C60.4625 61.8916 56.7583 64.1666 52.5 64.1666C49.4958 64.1666 46.7833 63.0291 44.7416 61.1624C43.8666 60.4041 43.1083 59.5 42.5249 58.5083C41.4458 56.7583 40.8333 54.6875 40.8333 52.5C40.8333 49.35 42.0875 46.4625 44.1292 44.3625C46.2583 42.175 49.2333 40.8333 52.5 40.8333C55.9416 40.8333 59.0625 42.3209 61.1625 44.7125C63.0292 46.7834 64.1666 49.525 64.1666 52.5Z" stroke="#3A499C" style="stroke:#3A499C;stroke:color(display-p3 0.2275 0.2863 0.6118);stroke-opacity:1;" stroke-width="4" stroke-miterlimit="10" stroke-linecap="round" stroke-linejoin="round"/>
<path d="M55.5042 49.4083L49.35 55.5624" stroke="#3A499C" style="stroke:#3A499C;stroke:color(display-p3 0.2275 0.2863 0.6118);stroke-opacity:1;" stroke-width="4" stroke-miterlimit="10" stroke-linecap="round" stroke-linejoin="round"/>
<path d="M49.4083 49.4667L55.5916 55.6209" stroke="#3A499C" style="stroke:#3A499C;stroke:color(display-p3 0.2275 0.2863 0.6118);stroke-opacity:1;" stroke-width="4" stroke-miterlimit="10" stroke-linecap="round" stroke-linejoin="round"/>
</svg>
